<svg xmlns="http://www.w3.org/2000/svg" viewBox="0 0 1200 630" width="1200" height="630" role="img" aria-label="Обложка записи">
  <rect width="1200" height="630" fill="#0b0b0d" />
  <rect x="215" y="329" width="751" height="9" fill="hsl(256 70% 60%)" opacity="0.44" />
  <rect x="510" y="523" width="350" height="6" fill="hsl(263 70% 60%)" opacity="0.24" />
  <rect x="403" y="175" width="619" height="8" fill="hsl(270 70% 60%)" opacity="0.31" />
  <rect x="309" y="178" width="801" height="3" fill="hsl(277 70% 60%)" opacity="0.70" />
  <rect x="178" y="106" width="980" height="8" fill="hsl(284 70% 60%)" opacity="0.68" />
  <rect x="432" y="250" width="576" height="6" fill="hsl(291 70% 60%)" opacity="0.54" />
  <rect x="159" y="222" width="688" height="2" fill="hsl(298 70% 60%)" opacity="0.34" />
  <rect x="461" y="344" width="496" height="3" fill="hsl(305 70% 60%)" opacity="0.75" />
  <rect x="733" y="491" width="190" height="7" fill="hsl(312 70% 60%)" opacity="0.39" />
  <rect x="861" y="218" width="161" height="4" fill="hsl(319 70% 60%)" opacity="0.33" />
  <rect x="727" y="353" width="346" height="4" fill="hsl(326 70% 60%)" opacity="0.61" />
  <rect x="884" y="347" width="230" height="4" fill="hsl(333 70% 60%)" opacity="0.39" />
  <rect x="118" y="52" width="951" height="2" fill="hsl(340 70% 60%)" opacity="0.32" />
  <rect x="11" y="284" width="967" height="5" fill="hsl(347 70% 60%)" opacity="0.54" />
  <rect x="217" y="351" width="954" height="3" fill="hsl(354 70% 60%)" opacity="0.35" />
  <circle cx="1033" cy="167" r="107" fill="none" stroke="hsl(256 80% 65%)" stroke-width="3" opacity="0.7" />
</svg>
